<svg xmlns="http://www.w3.org/2000/svg" width="33" height="33" fill="none" viewBox="0 0 33 33">
  <path fill="#fff" d="m12.72 5.062 2.19 3.725h-4.612a2.517 2.517 0 1 1 0-5.034h.138c.938 0 1.813.497 2.284 1.309ZM4.76 6.27c0 .906.22 1.762.604 2.517H2.746c-1.114 0-2.014.9-2.014 2.014v4.028c0 1.114.9 2.013 2.014 2.013H30.94c1.114 0 2.014-.9 2.014-2.013V10.8c0-1.114-.9-2.014-2.014-2.014h-2.62A5.538 5.538 0 0 0 23.387.732h-.138a5.679 5.679 0 0 0-4.89 2.794l-1.517 2.587-1.516-2.58a5.671 5.671 0 0 0-4.89-2.8h-.138A5.538 5.538 0 0 0 4.76 6.27Zm21.144 0a2.517 2.517 0 0 1-2.517 2.517h-4.613l2.19-3.725a2.652 2.652 0 0 1 2.285-1.31h.138a2.517 2.517 0 0 1 2.517 2.518ZM2.746 18.856v11.076a3.021 3.021 0 0 0 3.02 3.02h9.063V18.857H2.746Zm16.11 14.097h9.062a3.021 3.021 0 0 0 3.02-3.021V18.856H18.857v14.097Z"/>
  <path fill="#FF5722" d="m11.988 4.33 2.19 3.725H9.565a2.517 2.517 0 1 1 0-5.034h.139c.938 0 1.812.497 2.284 1.309Zm-7.96 1.208c0 .906.22 1.762.604 2.517H2.014C.9 8.055 0 8.955 0 10.07v4.027c0 1.114.9 2.014 2.014 2.014h28.192c1.114 0 2.014-.9 2.014-2.014V10.07c0-1.114-.9-2.014-2.014-2.014H27.59A5.538 5.538 0 0 0 22.655 0h-.139a5.679 5.679 0 0 0-4.89 2.794L16.11 5.381 14.594 2.8A5.671 5.671 0 0 0 9.704 0h-.139a5.538 5.538 0 0 0-5.537 5.538Zm21.144 0a2.516 2.516 0 0 1-2.517 2.517h-4.613l2.19-3.725a2.652 2.652 0 0 1 2.285-1.31h.138a2.516 2.516 0 0 1 2.517 2.518ZM2.014 18.124V29.2a3.021 3.021 0 0 0 3.02 3.02h9.062V18.124H2.014Zm16.11 14.096h9.062a3.021 3.021 0 0 0 3.02-3.02V18.124H18.124V32.22Z"/>
</svg>
